<svg width="53" height="53" viewBox="0 0 53 53" fill="none" xmlns="http://www.w3.org/2000/svg">
  <g filter="url(#filter0_d_627_7)">
    <path d="M26.5 0C14.0931 0 4 10.0931 4 22.5C4 34.9069 14.0931 45 26.5 45C38.9069 45 49 34.9069 49 22.5C49 10.0931 38.9069 0 26.5 0ZM26.5 41.25C16.1613 41.25 7.75 32.8387 7.75 22.5C7.75 12.1613 16.1613 3.75 26.5 3.75C36.8387 3.75 45.25 12.1613 45.25 22.5C45.25 32.8387 36.8387 41.25 26.5 41.25ZM34 26.25C34 29.3513 31.4763 31.875 28.375 31.875V33.75C28.375 34.7869 27.5369 35.625 26.5 35.625C25.4631 35.625 24.625 34.7869 24.625 33.75V31.875H24.1225C22.1219 31.875 20.2544 30.7988 19.2512 29.0644C18.7319 28.1663 19.0394 27.0206 19.9338 26.5031C20.8319 25.98 21.9794 26.2912 22.495 27.1856C22.8306 27.7669 23.4531 28.125 24.1206 28.125H28.3731C29.4081 28.125 30.2481 27.285 30.2481 26.25C30.2481 25.5413 29.74 24.9412 29.0406 24.825L23.3388 23.8744C20.8225 23.4562 18.9981 21.3 18.9981 18.75C18.9981 15.6487 21.5219 13.125 24.6231 13.125V11.25C24.6231 10.215 25.4612 9.375 26.4981 9.375C27.535 9.375 28.3731 10.215 28.3731 11.25V13.125H28.8756C30.8763 13.125 32.7437 14.2031 33.7469 15.9375C34.2662 16.8337 33.9588 17.9794 33.0644 18.4988C32.1644 19.0181 31.0188 18.7106 30.5031 17.8144C30.1675 17.235 29.545 16.8769 28.8775 16.8769H24.625C23.59 16.8769 22.75 17.7188 22.75 18.7519C22.75 19.4606 23.2581 20.0606 23.9575 20.1769L29.6594 21.1275C32.1756 21.5456 34 23.7019 34 26.2519V26.25Z" fill="#5FE5EE"/>
  </g>
  <defs>
    <filter id="filter0_d_627_7" x="0" y="0" width="53" height="53" filterUnits="userSpaceOnUse" color-interpolation-filters="sRGB">
      <feFlood flood-opacity="0" result="BackgroundImageFix"/>
      <feColorMatrix in="SourceAlpha" type="matrix" values="0 0 0 0 0 0 0 0 0 0 0 0 0 0 0 0 0 0 127 0" result="hardAlpha"/>
      <feOffset dy="4"/>
      <feGaussianBlur stdDeviation="2"/>
      <feComposite in2="hardAlpha" operator="out"/>
      <feColorMatrix type="matrix" values="0 0 0 0 0 0 0 0 0 0 0 0 0 0 0 0 0 0 0.25 0"/>
      <feBlend mode="normal" in2="BackgroundImageFix" result="effect1_dropShadow_627_7"/>
      <feBlend mode="normal" in="SourceGraphic" in2="effect1_dropShadow_627_7" result="shape"/>
    </filter>
  </defs>
</svg>
