<svg width="45" height="41" viewBox="0 0 45 41" fill="none" xmlns="http://www.w3.org/2000/svg">
  <path d="M44.9438 12.7857C44.8507 12.5015 44.6482 12.2658 44.3814 12.1308L43.3749 11.6214C43.108 11.4863 42.7982 11.4627 42.5139 11.5559C42.2297 11.6491 41.994 11.8515 41.859 12.1184L40.5894 14.627C39.8416 12.1369 38.6039 9.81572 36.9329 7.79484C34.5528 4.91654 31.4085 2.78737 27.8401 1.63745C25.8773 1.00484 23.8494 0.684143 21.813 0.684143C18.7023 0.684143 15.7041 1.4124 12.9016 2.84885C8.24676 5.23465 4.7997 9.29028 3.19518 14.2688C3.00409 14.8617 3.32987 15.4973 3.92288 15.6884L4.99654 16.0344C5.58978 16.2257 6.2252 15.8997 6.41618 15.3067C7.74343 11.1887 10.5949 7.83376 14.4453 5.86037C16.7649 4.67153 19.2442 4.06871 21.8144 4.06871C23.4983 4.06871 25.1766 4.33436 26.8023 4.85833C32.1315 6.57577 36.1605 10.9303 37.528 16.263L34.2618 14.6101C33.7061 14.3285 33.0274 14.5513 32.7459 15.1072L32.2365 16.1138C32.1014 16.3808 32.0779 16.6904 32.1711 16.9747C32.2643 17.259 32.4666 17.4946 32.7336 17.6296L39.7912 21.2011C39.9544 21.2838 40.1282 21.3229 40.2996 21.3229C40.7113 21.3229 41.1083 21.0967 41.3069 20.7041L44.8785 13.6466C45.0136 13.3796 45.037 13.07 44.9438 12.7857Z" fill="#E4E4E4"/>
  <path d="M41.0773 25.3116L40.0036 24.9656C39.4106 24.7744 38.7751 25.1003 38.584 25.6933C37.2567 29.8113 34.4054 33.1662 30.5549 35.1396C28.2354 36.3284 25.7559 36.9311 23.1856 36.9311C21.5017 36.9311 19.8236 36.6656 18.198 36.1416C12.8688 34.4242 8.83989 30.0696 7.47226 24.737L10.7385 26.3899C11.2943 26.6714 11.9729 26.4486 12.2543 25.8927L12.7638 24.8862C12.8989 24.6192 12.9224 24.3095 12.8292 24.0253C12.7359 23.741 12.5336 23.5054 12.2666 23.3702L5.20908 19.7989C4.65352 19.5174 3.97467 19.7401 3.69322 20.296L0.121632 27.3533C-0.0135069 27.6203 -0.03697 27.93 0.0562058 28.2142C0.149382 28.4985 0.351752 28.7342 0.618645 28.8692L1.62519 29.3786C2.18109 29.66 2.85972 29.4374 3.14105 28.8815L4.41065 26.3728C5.15843 28.8631 6.39611 31.1841 8.06719 33.205C10.4472 36.0833 13.5914 38.2125 17.1598 39.3624C19.1226 39.995 21.1504 40.3157 23.1868 40.3157C26.2537 40.3157 29.3353 39.5671 32.0983 38.151C36.7532 35.7652 40.2002 31.7096 41.8047 26.7311C41.8966 26.4464 41.8714 26.1368 41.7349 25.8706C41.5987 25.6044 41.362 25.4034 41.0773 25.3116Z" fill="#E4E4E4"/>
  <path d="M22.6457 24.9295C21.5929 24.9295 20.4551 24.4745 19.8142 23.7975L19.3102 23.2649C19.1819 23.1295 18.9677 23.1233 18.8318 23.2517L16.9473 25.0352C16.8822 25.097 16.8442 25.182 16.8416 25.2717C16.8392 25.3614 16.8724 25.4484 16.9341 25.5137L17.4382 26.0463C18.3075 26.9647 19.5712 27.6655 20.9386 27.9939V29.8628C20.9386 30.0496 21.0901 30.2012 21.2771 30.2012H23.8715C24.0585 30.2012 24.2099 30.0496 24.2099 29.8628V28.0599C26.6535 27.594 28.158 26.0189 28.158 23.8989C28.1856 20.5599 25.2767 19.679 23.352 19.0961C21.0394 18.3957 20.69 18.0452 20.69 17.2038C20.69 16.3091 22.1663 16.0704 23.0386 16.0704C23.8673 16.0704 24.8914 16.3435 25.4738 16.7197L26.0897 17.1176C26.2468 17.2189 26.4562 17.1738 26.5575 17.0169L27.9652 14.8377C28.0667 14.6806 28.0216 14.4712 27.8646 14.3698L27.2488 13.9719C26.4303 13.4431 25.3365 13.0551 24.2097 12.8888V11.1373C24.2097 10.9505 24.0582 10.7989 23.8713 10.7989H21.2768C21.0899 10.7989 20.9384 10.9505 20.9384 11.1373V13.0679C18.7598 13.6709 17.4186 15.2361 17.4186 17.2038C17.4186 20.717 20.539 21.6621 22.4035 22.2269C24.5839 22.8873 24.8924 23.1733 24.8864 23.8854C24.8869 24.7096 23.4781 24.9295 22.6457 24.9295Z" fill="#E4E4E4"/>
</svg>
