<svg xmlns="http://www.w3.org/2000/svg" width="50" height="58" viewBox="0 0 50 58" fill="none">
  <g filter="url(#filter0_f_917_3)">
    <path d="M19.3396 5C18.7132 5 18.2075 5.51048 18.2075 6.14286C18.2075 6.77524 18.7132 7.28571 19.3396 7.28571H30.6604C31.2868 7.28571 31.7925 6.77524 31.7925 6.14286C31.7925 5.51048 31.2868 5 30.6604 5H19.3396ZM9.90566 10.3333C7.2 10.3333 5 12.5543 5 15.2857C5 18.0171 7.2 20.2381 9.90566 20.2381H38.9623V44.2381C38.9623 47.8076 36.083 50.7143 32.5472 50.7143H17.4528C13.917 50.7143 11.0377 47.8076 11.0377 44.2381V24.4286C11.0377 23.7962 10.5321 23.2857 9.90566 23.2857C9.27925 23.2857 8.77358 23.7962 8.77358 24.4286V44.2381C8.77358 49.0686 12.6679 53 17.4528 53H32.5472C37.3321 53 41.2264 49.0686 41.2264 44.2381V20.1012C43.3849 19.5831 45 17.6248 45 15.2857C45 12.5543 42.8 10.3333 40.0943 10.3333H9.90566ZM9.90566 12.619H40.0943C41.5509 12.619 42.7359 13.8152 42.7359 15.2857C42.7359 16.7562 41.5509 17.9524 40.0943 17.9524H9.90566C8.44906 17.9524 7.26415 16.7562 7.26415 15.2857C7.26415 13.8152 8.44906 12.619 9.90566 12.619ZM19.717 25.5714C19.0906 25.5714 18.5849 26.0819 18.5849 26.7143V44.2381C18.5849 44.8705 19.0906 45.381 19.717 45.381C20.3434 45.381 20.8491 44.8705 20.8491 44.2381V26.7143C20.8491 26.0819 20.3434 25.5714 19.717 25.5714ZM30.283 25.5714C29.6566 25.5714 29.1509 26.0819 29.1509 26.7143V44.2381C29.1509 44.8705 29.6566 45.381 30.283 45.381C30.9094 45.381 31.4151 44.8705 31.4151 44.2381V26.7143C31.4151 26.0819 30.9094 25.5714 30.283 25.5714Z" fill="#FF3030"/>
  </g>
  <path d="M19.3396 5C18.7132 5 18.2075 5.51048 18.2075 6.14286C18.2075 6.77524 18.7132 7.28571 19.3396 7.28571H30.6604C31.2868 7.28571 31.7925 6.77524 31.7925 6.14286C31.7925 5.51048 31.2868 5 30.6604 5H19.3396ZM9.90566 10.3333C7.2 10.3333 5 12.5543 5 15.2857C5 18.0171 7.2 20.2381 9.90566 20.2381H38.9623V44.2381C38.9623 47.8076 36.083 50.7143 32.5472 50.7143H17.4528C13.917 50.7143 11.0377 47.8076 11.0377 44.2381V24.4286C11.0377 23.7962 10.5321 23.2857 9.90566 23.2857C9.27925 23.2857 8.77358 23.7962 8.77358 24.4286V44.2381C8.77358 49.0686 12.6679 53 17.4528 53H32.5472C37.3321 53 41.2264 49.0686 41.2264 44.2381V20.1012C43.3849 19.5831 45 17.6248 45 15.2857C45 12.5543 42.8 10.3333 40.0943 10.3333H9.90566ZM9.90566 12.619H40.0943C41.5509 12.619 42.7359 13.8152 42.7359 15.2857C42.7359 16.7562 41.5509 17.9524 40.0943 17.9524H9.90566C8.44906 17.9524 7.26415 16.7562 7.26415 15.2857C7.26415 13.8152 8.44906 12.619 9.90566 12.619ZM19.717 25.5714C19.0906 25.5714 18.5849 26.0819 18.5849 26.7143V44.2381C18.5849 44.8705 19.0906 45.381 19.717 45.381C20.3434 45.381 20.8491 44.8705 20.8491 44.2381V26.7143C20.8491 26.0819 20.3434 25.5714 19.717 25.5714ZM30.283 25.5714C29.6566 25.5714 29.1509 26.0819 29.1509 26.7143V44.2381C29.1509 44.8705 29.6566 45.381 30.283 45.381C30.9094 45.381 31.4151 44.8705 31.4151 44.2381V26.7143C31.4151 26.0819 30.9094 25.5714 30.283 25.5714Z" fill="#FFD1D1"/>
  <defs>
    <filter id="filter0_f_917_3" x="0.7" y="0.7" width="48.6" height="56.6" filterUnits="userSpaceOnUse" color-interpolation-filters="sRGB">
      <feFlood flood-opacity="0" result="BackgroundImageFix"/>
      <feBlend mode="normal" in="SourceGraphic" in2="BackgroundImageFix" result="shape"/>
      <feGaussianBlur stdDeviation="2.15" result="effect1_foregroundBlur_917_3"/>
    </filter>
  </defs>
</svg>