<svg xmlns="http://www.w3.org/2000/svg" width="53" height="53" viewBox="0 0 53 53" fill="none">
  <g filter="url(#filter0_d_805_16)">
    <path d="M47.3519 16.9745L33.13 2.74219C31.3698 0.986119 28.9856 0 26.5 0C24.0144 0 21.6302 0.986119 19.87 2.74219L5.64815 16.9745C5.12394 17.4956 4.70834 18.1157 4.42543 18.7988C4.14251 19.4819 3.99792 20.2143 4.00002 20.9537V39.3716C4.00002 40.8644 4.59265 42.296 5.64755 43.3515C6.70244 44.407 8.13318 45 9.62502 45H43.375C44.8668 45 46.2976 44.407 47.3525 43.3515C48.4073 42.296 49 40.8644 49 39.3716V20.9537C49.0021 20.2143 48.8575 19.4819 48.5746 18.7988C48.2917 18.1157 47.8761 17.4956 47.3519 16.9745ZM32.125 41.2478H20.875V33.8671C20.875 32.3743 21.4676 30.9427 22.5225 29.8872C23.5774 28.8317 25.0082 28.2387 26.5 28.2387C27.9918 28.2387 29.4226 28.8317 30.4775 29.8872C31.5324 30.9427 32.125 32.3743 32.125 33.8671V41.2478ZM45.25 39.3716C45.25 39.8692 45.0524 40.3464 44.7008 40.6982C44.3492 41.0501 43.8723 41.2478 43.375 41.2478H35.875V33.8671C35.875 31.3792 34.8873 28.9932 33.1291 27.234C31.371 25.4748 28.9864 24.4865 26.5 24.4865C24.0136 24.4865 21.629 25.4748 19.8709 27.234C18.1127 28.9932 17.125 31.3792 17.125 33.8671V41.2478H9.62502C9.12774 41.2478 8.65082 41.0501 8.29919 40.6982C7.94756 40.3464 7.75002 39.8692 7.75002 39.3716V20.9537C7.75176 20.4565 7.94912 19.98 8.29939 19.6273L22.5213 5.40066C23.5782 4.34802 25.0087 3.75707 26.5 3.75707C27.9913 3.75707 29.4218 4.34802 30.4787 5.40066L44.7006 19.6329C45.0495 19.9842 45.2468 20.4585 45.25 20.9537V39.3716Z" fill="#E4E4E4"/>
  </g>
  <defs>
    <filter id="filter0_d_805_16" x="0" y="0" width="53" height="53" filterUnits="userSpaceOnUse" color-interpolation-filters="sRGB">
      <feFlood flood-opacity="0" result="BackgroundImageFix"/>
      <feColorMatrix in="SourceAlpha" type="matrix" values="0 0 0 0 0 0 0 0 0 0 0 0 0 0 0 0 0 0 127 0" result="hardAlpha"/>
      <feOffset dy="4"/>
      <feGaussianBlur stdDeviation="2"/>
      <feComposite in2="hardAlpha" operator="out"/>
      <feColorMatrix type="matrix" values="0 0 0 0 0 0 0 0 0 0 0 0 0 0 0 0 0 0 0.25 0"/>
      <feBlend mode="normal" in2="BackgroundImageFix" result="effect1_dropShadow_805_16"/>
      <feBlend mode="normal" in="SourceGraphic" in2="effect1_dropShadow_805_16" result="shape"/>
    </filter>
  </defs>
</svg>
