<svg width="53" height="53" viewBox="0 0 53 53" fill="none" xmlns="http://www.w3.org/2000/svg">
<g clip-path="url(#clip0_890_2)" filter="url(#filter0_d_890_2)">
<g filter="url(#filter1_d_890_2)">
<path d="M27.4375 15C28.1834 15 28.8988 14.7037 29.4262 14.1762C29.9537 13.6488 30.25 12.9334 30.25 12.1875L30.25 10.6875C30.25 9.34484 30.7834 8.05718 31.7328 7.10777C32.6822 6.15837 33.9698 5.625 35.3125 5.625L38.3125 5.625C39.6552 5.625 40.9428 6.15837 41.8922 7.10777C42.8416 8.05718 43.375 9.34484 43.375 10.6875L43.375 34.3125C43.375 35.6552 42.8416 36.9428 41.8922 37.8922C40.9428 38.8416 39.6552 39.375 38.3125 39.375L35.3125 39.375C33.9698 39.375 32.6822 38.8416 31.7328 37.8922C30.7834 36.9428 30.25 35.6552 30.25 34.3125L30.25 32.8125C30.25 32.0666 29.9537 31.3512 29.4262 30.8238C28.8988 30.2963 28.1834 30 27.4375 30C26.6916 30 25.9762 30.2963 25.4488 30.8238C24.9213 31.3512 24.625 32.0666 24.625 32.8125L24.625 34.3125C24.628 37.1461 25.7549 39.8628 27.7586 41.8664C29.7622 43.8701 32.4789 44.997 35.3125 45L38.3125 45C41.1461 44.997 43.8628 43.8701 45.8664 41.8664C47.8701 39.8628 48.997 37.1461 49 34.3125L49 10.6875C48.997 7.85391 47.8701 5.13724 45.8664 3.13359C43.8628 1.12994 41.1461 0.00297871 38.3125 9.34331e-07L35.3125 1.1966e-06C32.4789 0.00297947 29.7622 1.12994 27.7586 3.13359C25.7549 5.13724 24.628 7.85392 24.625 10.6875L24.625 12.1875C24.625 12.9334 24.9213 13.6488 25.4488 14.1762C25.9762 14.7037 26.6916 15 27.4375 15Z" fill="#5FE5EE"/>
</g>
<g filter="url(#filter2_d_890_2)">
<path d="M6.69812 27.1406L15.2969 35.7394C15.5581 36.0005 15.8682 36.2076 16.2095 36.3489C16.5508 36.4902 16.9166 36.5628 17.286 36.5627C17.6553 36.5627 18.0211 36.4898 18.3623 36.3484C18.7035 36.207 19.0136 35.9997 19.2747 35.7384C19.8021 35.2108 20.0982 34.4953 20.098 33.7493C20.098 33.38 20.0251 33.0142 19.8837 32.673C19.7423 32.3318 19.535 32.0218 19.2737 31.7606L12.8781 25.365L35.875 25.3125C36.6209 25.3125 37.3363 25.0162 37.8637 24.4887C38.3912 23.9613 38.6875 23.2459 38.6875 22.5C38.6875 21.7541 38.3912 21.0387 37.8637 20.5113C37.3363 19.9838 36.6209 19.6875 35.875 19.6875L12.7787 19.74L19.2794 13.2394C19.807 12.712 20.1035 11.9967 20.1037 11.2507C20.1038 10.5047 19.8077 9.78919 19.2803 9.26157C18.7529 8.73396 18.0376 8.43744 17.2916 8.43727C16.5456 8.43709 15.8301 8.73327 15.3025 9.26063L6.70375 17.8594C5.47444 19.0906 4.78352 20.759 4.78246 22.4988C4.78141 24.2387 5.47031 25.9079 6.69812 27.1406Z" fill="#5FE5EE"/>
</g>
</g>
<defs>
<filter id="filter0_d_890_2" x="0" y="0" width="53" height="53" filterUnits="userSpaceOnUse" color-interpolation-filters="sRGB">
<feFlood flood-opacity="0" result="BackgroundImageFix"/>
<feColorMatrix in="SourceAlpha" type="matrix" values="0 0 0 0 0 0 0 0 0 0 0 0 0 0 0 0 0 0 127 0" result="hardAlpha"/>
<feOffset dy="4"/>
<feGaussianBlur stdDeviation="2"/>
<feComposite in2="hardAlpha" operator="out"/>
<feColorMatrix type="matrix" values="0 0 0 0 0 0 0 0 0 0 0 0 0 0 0 0 0 0 0.25 0"/>
<feBlend mode="normal" in2="BackgroundImageFix" result="effect1_dropShadow_890_2"/>
<feBlend mode="normal" in="SourceGraphic" in2="effect1_dropShadow_890_2" result="shape"/>
</filter>
<filter id="filter1_d_890_2" x="20.625" y="0" width="32.375" height="53" filterUnits="userSpaceOnUse" color-interpolation-filters="sRGB">
<feFlood flood-opacity="0" result="BackgroundImageFix"/>
<feColorMatrix in="SourceAlpha" type="matrix" values="0 0 0 0 0 0 0 0 0 0 0 0 0 0 0 0 0 0 127 0" result="hardAlpha"/>
<feOffset dy="4"/>
<feGaussianBlur stdDeviation="2"/>
<feComposite in2="hardAlpha" operator="out"/>
<feColorMatrix type="matrix" values="0 0 0 0 0 0 0 0 0 0 0 0 0 0 0 0 0 0 0.25 0"/>
<feBlend mode="normal" in2="BackgroundImageFix" result="effect1_dropShadow_890_2"/>
<feBlend mode="normal" in="SourceGraphic" in2="effect1_dropShadow_890_2" result="shape"/>
</filter>
<filter id="filter2_d_890_2" x="0.782471" y="8.43726" width="41.905" height="36.1255" filterUnits="userSpaceOnUse" color-interpolation-filters="sRGB">
<feFlood flood-opacity="0" result="BackgroundImageFix"/>
<feColorMatrix in="SourceAlpha" type="matrix" values="0 0 0 0 0 0 0 0 0 0 0 0 0 0 0 0 0 0 127 0" result="hardAlpha"/>
<feOffset dy="4"/>
<feGaussianBlur stdDeviation="2"/>
<feComposite in2="hardAlpha" operator="out"/>
<feColorMatrix type="matrix" values="0 0 0 0 0 0 0 0 0 0 0 0 0 0 0 0 0 0 0.25 0"/>
<feBlend mode="normal" in2="BackgroundImageFix" result="effect1_dropShadow_890_2"/>
<feBlend mode="normal" in="SourceGraphic" in2="effect1_dropShadow_890_2" result="shape"/>
</filter>
<clipPath id="clip0_890_2">
<rect width="45" height="45" fill="white" transform="translate(49 45) rotate(180)"/>
</clipPath>
</defs>
</svg>
