<svg width="145" height="45" viewBox="0 0 145 45" fill="none" xmlns="http://www.w3.org/2000/svg">
<path d="M66.9539 37.5592V37.0811C66.9539 36.8448 66.7681 36.6513 66.531 36.6401C65.0283 36.5741 63.2344 36.4374 62.0182 36.229C60.8039 36.0206 59.7267 35.7183 58.7859 35.3202C58.6216 35.2504 58.5143 35.0904 58.5143 34.9127V30.7518C58.5143 30.4448 58.8223 30.229 59.1098 30.3378C60.1169 30.7164 61.1931 31.0309 62.3402 31.2811C63.6049 31.5564 64.8454 31.7304 66.6085 31.8662C66.8652 31.8857 67.0845 31.683 67.0845 31.4262V24.7611C67.0845 24.5527 66.938 24.3723 66.7336 24.3295L65.8805 24.1499C65.8711 24.1481 65.8609 24.1453 65.8515 24.1425C62.9646 23.3434 60.9345 22.3453 59.7622 21.1472C58.5871 19.9481 58 18.2913 58 16.1779C58 13.9788 58.7094 12.2086 60.1281 10.8653C61.4805 9.58531 64.1752 8.84485 66.8082 8.50532C67.0276 8.47741 67.1919 8.2895 67.1919 8.06811V7.49229C67.1919 7.25416 67.3813 7.05881 67.6212 7.05136L69.306 7.0002C69.5552 6.99276 69.7624 7.19183 69.7624 7.44113V7.88113C69.7624 8.11369 69.9425 8.30532 70.1749 8.32113C71.4854 8.40857 73.2859 8.54253 74.293 8.72206C75.259 8.89508 76.0748 9.08857 76.7412 9.30438C76.9223 9.36299 77.0446 9.53322 77.0446 9.72299V13.8821C77.0446 14.1844 76.7468 14.3955 76.4593 14.2988C75.6361 14.0216 74.7858 13.7909 73.9066 13.6058C72.9144 13.3983 71.9222 13.2727 70.3812 13.1825C70.1273 13.1676 69.9117 13.3695 69.9117 13.6225V19.9202C69.9117 20.123 70.0517 20.3006 70.2496 20.3481C72.891 20.9881 74.447 21.6709 75.5614 22.4523C76.7225 23.2662 77.5318 24.1946 77.9901 25.2374C78.4483 26.2802 78.678 27.4439 78.678 28.7295C78.678 30.7574 78.0181 32.4569 76.7001 33.8281C75.4429 35.136 74.0671 36.002 71.5815 36.4253C71.3687 36.4615 71.2119 36.6448 71.2119 36.8597V37.5564C71.2119 37.8001 71.014 37.9974 70.7695 37.9974H67.3991C67.1517 38.0001 66.9539 37.8029 66.9539 37.5592ZM67.0845 18.5583V14.0123C67.0845 13.7453 66.8484 13.5407 66.5833 13.5751C65.4343 13.7239 64.9116 14.0021 64.5327 14.3788C64.1033 14.8076 63.8877 15.4067 63.8877 16.1779C63.8877 16.8923 64.066 17.4634 64.4253 17.8913C64.739 18.2672 65.2794 18.6216 66.5198 18.9816C66.8026 19.0644 67.0845 18.8513 67.0845 18.5583ZM69.6756 31.055C69.6756 31.3323 69.9294 31.5406 70.202 31.4885C71.4704 31.2439 71.9222 30.9536 72.2274 30.5741C72.5709 30.1453 72.7436 29.5323 72.7436 28.7323C72.7436 27.9899 72.5858 27.3899 72.2704 26.9332C71.9903 26.5276 71.5293 26.1555 70.2151 25.8616C69.9388 25.8002 69.6756 26.0095 69.6756 26.2923V31.055Z" fill="#C0C0C0"/>
<path d="M96.1787 37.2113C92.2921 37.2113 89.3184 36.3909 87.2566 34.7499C85.2778 33.1751 83.9478 31.0495 83.2673 28.3723C83.216 28.1714 83.0331 28.0309 82.8249 28.0309H80.751C80.498 28.0309 80.2927 27.8262 80.2927 27.5741V25.0718C80.2927 24.8197 80.498 24.6151 80.751 24.6151H82.2024C82.4628 24.6151 82.6709 24.3993 82.6588 24.1397C82.6541 24.0318 82.6513 23.9248 82.6513 23.8169C82.6513 23.5509 82.6513 23.27 82.6513 22.9741C82.6513 22.7081 82.6513 22.4346 82.6513 22.1537C82.6513 22.0374 82.6541 21.9221 82.6588 21.8076C82.67 21.549 82.4618 21.3332 82.2014 21.3332H80.75C80.4971 21.3332 80.2917 21.1286 80.2917 20.8765V18.3742C80.2917 18.1221 80.4971 17.9174 80.75 17.9174H82.6784C82.8931 17.9174 83.0797 17.7686 83.1255 17.5602C83.5492 15.6132 84.2362 13.9286 85.1873 12.5072C86.1953 10.9993 87.5973 9.83185 89.3921 9.00394C91.187 8.17697 93.4336 7.76208 96.1339 7.76208C97.2913 7.76208 98.2844 7.82162 99.1151 7.93976C99.9449 8.0579 100.724 8.22069 101.451 8.4272C102.088 8.60859 102.765 8.82441 103.482 9.07371C103.665 9.1379 103.788 9.31092 103.788 9.50441V13.6495C103.788 13.9704 103.464 14.1909 103.164 14.0746C102.132 13.6737 101.183 13.3807 100.317 13.1956C99.2784 12.9742 98.0184 12.8625 96.5353 12.8625C94.2802 12.8625 92.5973 13.2914 91.4848 14.1491C90.5084 14.9016 89.801 15.9611 89.3613 17.3276C89.2671 17.6207 89.4901 17.9193 89.7991 17.9193H97.2343C97.4873 17.9193 97.6926 18.1239 97.6926 18.376V20.8783C97.6926 21.1304 97.4873 21.3351 97.2343 21.3351H89.2055C88.9525 21.3351 88.7472 21.5397 88.7472 21.7918V22.976C88.7472 23.2718 88.7472 23.5528 88.7472 23.8188C88.7472 23.9388 88.75 24.0597 88.7565 24.1797C88.7686 24.4244 88.9693 24.6169 89.2148 24.6169H97.2343C97.4873 24.6169 97.6926 24.8216 97.6926 25.0737V27.576C97.6926 27.8281 97.4873 28.0327 97.2343 28.0327H90.039C89.7085 28.0327 89.4845 28.3713 89.6189 28.6718C90.109 29.7686 90.8426 30.5983 91.818 31.1593C92.9754 31.8244 94.591 32.1574 96.6687 32.1574C98.0632 32.1574 99.2868 32.0467 100.34 31.8244C101.222 31.6383 102.182 31.3648 103.222 31.002C103.521 30.8979 103.833 31.1165 103.833 31.4318V35.5927C103.833 35.7927 103.703 35.9685 103.511 36.0281C102.8 36.2513 102.129 36.4467 101.497 36.6132C100.77 36.8048 99.9906 36.9527 99.1608 37.0569C98.3292 37.1592 97.3361 37.2113 96.1787 37.2113Z" fill="#C0C0C0"/>
<path d="M105.799 36.5611V32.8067C105.799 32.5695 105.991 32.3779 106.229 32.3779H106.823C107.594 32.3779 108.18 32.1416 108.581 31.6681C108.981 31.1956 109.182 30.5751 109.182 29.8058L109.241 23.056C109.243 22.8179 109.05 22.6235 108.811 22.6235H106.73C106.495 22.6235 106.304 22.4365 106.299 22.2039L106.254 19.9993C106.249 19.7593 106.443 19.5621 106.684 19.5621H108.751C108.989 19.5621 109.182 19.3705 109.182 19.1332V15.6151C109.182 13.2802 109.923 11.4244 111.407 10.0495C112.89 8.67466 114.818 7.98722 117.192 7.98722C118.319 7.98722 116.904 7.82536 117.824 7.98722C118.629 8.12955 119.343 8.3342 119.967 8.60211C120.124 8.67001 120.226 8.82536 120.226 8.99652V12.2142C120.226 12.5054 119.942 12.7091 119.664 12.6216C119.346 12.5221 118.977 12.4402 118.557 12.3779C117.86 12.2747 119.653 12.4663 119.06 12.4663C116.48 12.4663 115.189 13.6347 115.189 15.9695V19.1332C115.189 19.3705 115.381 19.5621 115.619 19.5621H118.206C118.453 19.5621 118.649 19.7677 118.636 20.0132L118.522 22.2179C118.51 22.4458 118.321 22.6244 118.093 22.6244H115.68C115.444 22.6244 115.251 22.8142 115.249 23.0495L115.19 29.497C115.19 30.1779 115.115 30.7463 114.968 31.2049C114.907 31.3909 114.825 31.5658 114.721 31.7295C114.542 32.0123 114.754 32.3807 115.089 32.3807H124.016C124.254 32.3807 124.446 32.5723 124.446 32.8095V36.5639C124.446 36.8011 124.254 36.9928 124.016 36.9928H106.23C105.991 36.99 105.799 36.7974 105.799 36.5611Z" fill="#C0C0C0"/>
<path d="M126.005 36.3872V32.6812C126.005 32.431 126.208 32.2282 126.459 32.2282H127.028C127.799 32.2282 128.385 31.9919 128.785 31.5184C129.186 31.0458 129.386 30.4254 129.386 29.6561L129.446 22.9305C129.448 22.6784 129.244 22.4728 128.991 22.4728H126.959C126.711 22.4728 126.509 22.2756 126.504 22.0291L126.459 19.8738C126.454 19.6198 126.659 19.4114 126.914 19.4114H128.932C129.183 19.4114 129.386 19.2087 129.386 18.9584V15.4645C129.386 13.1296 130.127 11.2738 131.611 9.89891C133.095 8.52403 135.023 7.83659 137.396 7.83659C138.524 7.83659 137.109 7.67473 138.028 7.83659C138.827 7.97798 139.537 8.18077 140.156 8.44496C140.324 8.51659 140.431 8.68031 140.431 8.8617V12.0319C140.431 12.3389 140.132 12.5519 139.838 12.4617C139.527 12.3659 139.169 12.2877 138.762 12.2273C138.065 12.124 139.858 12.3156 139.265 12.3156C136.684 12.3156 135.393 13.484 135.393 15.8189V18.9575C135.393 19.2077 135.597 19.4105 135.848 19.4105H138.384C138.644 19.4105 138.852 19.6282 138.839 19.8868L138.727 22.0421C138.714 22.2831 138.515 22.4719 138.272 22.4719H135.907C135.658 22.4719 135.454 22.6719 135.452 22.9212L135.393 29.3445C135.393 30.0254 135.318 30.5938 135.17 31.0524C135.114 31.2245 135.041 31.3863 134.947 31.5398C134.763 31.8421 134.981 32.2282 135.336 32.2282H144.194C144.445 32.2282 144.649 32.431 144.649 32.6812V36.3872C144.649 36.6375 144.445 36.8403 144.194 36.8403H126.458C126.208 36.8403 126.005 36.6375 126.005 36.3872Z" fill="#C0C0C0"/>
<path d="M48.4243 20.6065L31.8606 20.9879C31.3127 21.0009 30.9963 20.3739 31.3333 19.9432L34.5049 15.8865C34.6785 15.6642 34.6897 15.3544 34.5291 15.1228C31.9091 11.3628 27.5456 8.90138 22.6062 8.90138C18.1251 8.90138 14.1209 10.9256 11.4608 14.106C11.3385 14.2521 11.1565 14.3358 10.9652 14.3358H4.99626C4.5389 14.3358 4.22622 13.8781 4.3905 13.453C7.61904 5.10976 15.8505 0 25.4913 0C31.5526 0 37.0586 2.38418 41.1113 6.26231C41.3885 6.52743 41.8356 6.49487 42.0717 6.19255L42.6019 5.51441C42.9136 5.11534 43.5436 5.21115 43.7219 5.68371L49.0188 19.7311C49.1738 20.1488 48.8713 20.5962 48.4243 20.6065Z" fill="white"/>
<path d="M48.9414 23.9963C47.8689 35.4158 38.0041 45 26.2651 45C20.8114 45 15.8104 43.0717 11.9107 39.8614L10.7655 41.3712C10.5275 41.6847 10.043 41.6428 9.86291 41.294L4.46707 30.8754C4.2832 30.521 4.54174 30.0977 4.9431 30.0977H18.2446C18.687 30.0977 18.939 30.6019 18.6721 30.9535L15.409 35.2521L15.2765 35.4261C15.1626 35.5768 15.2065 35.7935 15.3698 35.8875C17.4988 37.1107 19.9685 37.8103 22.6025 37.8103C30.3953 37.8103 36.8971 31.0391 37.236 23.3554H48.359C48.7062 23.3554 48.9741 23.6531 48.9414 23.9963Z" fill="white"/>
<path d="M29.0056 17.1553L26.7524 20.5032C26.632 20.6734 26.436 20.7758 26.2269 20.7776L3.80541 20.9804L0.489131 21.0009C0.530199 21.0111 0.573134 21.0176 0.617002 21.0204L0.489131 21.0009C0.209118 20.9293 0.000976562 20.6762 0.000976562 20.3739L1.02769 17.0195C1.05196 16.6651 1.35157 16.3767 1.67171 16.3721L3.78394 16.3358L28.4689 16.1358C28.9981 16.1302 29.3108 16.7246 29.0056 17.1553Z" fill="#178041"/>
<path d="M34.0532 24.3591L32.7017 28.6168C32.5813 28.7982 32.3778 28.9079 32.1594 28.9079H0.649629C0.291213 28.9079 0 28.6177 0 28.2605L1.38513 24.0028C1.45326 23.5954 1.74074 23.308 2.03475 23.3554H33.5109C34.028 23.3554 34.1615 23.7991 34.0532 24.3591Z" fill="#178041"/>
</svg>
