<svg width="160" height="53" viewBox="0 0 160 53" fill="none" xmlns="http://www.w3.org/2000/svg">
  <g filter="url(#filter0_d_627_47)">
    <path d="M48.4243 20.6065L47.9688 20.6167L41.6079 20.7628L38.9842 20.8232L36.8953 20.8716L31.8607 20.9879C31.3128 21.0009 30.9964 20.3739 31.3333 19.9432L34.5049 15.8865C34.6785 15.6642 34.6897 15.3544 34.5292 15.1228C31.9092 11.3628 27.5457 8.90138 22.6063 8.90138C18.1252 8.90138 14.121 10.9256 11.4609 14.106C11.3386 14.2521 11.1566 14.3358 10.9652 14.3358H4.99632C4.53896 14.3358 4.22628 13.8781 4.39056 13.453C7.6191 5.10976 15.8505 0 25.4913 0C31.5527 0 37.0586 2.38418 41.1113 6.26231C41.3886 6.52743 41.8356 6.49487 42.0718 6.19255L42.6019 5.51441C42.9137 5.11534 43.5437 5.21115 43.722 5.68371L49.0189 19.7311C49.1738 20.1488 48.8714 20.5962 48.4243 20.6065Z" fill="white"/>
  </g>
  <g filter="url(#filter1_d_627_47)">
    <path d="M48.9415 23.9964C47.869 35.4159 38.0042 45.0001 26.2651 45.0001C20.8114 45.0001 15.8104 43.0717 11.9108 39.8615L10.7655 41.3712C10.5275 41.6847 10.0431 41.6428 9.86297 41.294L4.46713 30.8754C4.28326 30.521 4.54181 30.0978 4.94316 30.0978H18.2447C18.6871 30.0978 18.9391 30.6019 18.6721 30.9536L15.4091 35.2522L15.2765 35.4261C15.1627 35.5768 15.2065 35.7936 15.3699 35.8875C17.4989 37.1108 19.9686 37.8103 22.6026 37.8103C30.3953 37.8103 36.8972 31.0391 37.236 23.3554H48.359C48.7062 23.3554 48.9741 23.6531 48.9415 23.9964Z" fill="white"/>
  </g>
  <g filter="url(#filter2_d_627_47)">
    <path d="M29.0056 17.1553L26.7524 20.5032C26.632 20.6734 26.436 20.7758 26.2269 20.7776L9.21151 20.9311L6.23685 20.9581L3.80541 20.9804L0.489131 21.0009C0.530199 21.0111 0.573134 21.0176 0.617002 21.0204L0.488196 21.0009C0.208184 20.9293 0.000976562 20.6762 0.000976562 20.3739L1.02769 17.0195C1.05196 16.6651 1.35157 16.3767 1.67171 16.3721L3.78394 16.3358L7.25796 16.3079L9.48778 16.2902L28.4689 16.1358C28.9981 16.1302 29.3108 16.7246 29.0056 17.1553Z" fill="#5FE5EE"/>
  </g>
  <g filter="url(#filter3_d_627_47)">
    <path d="M34.0532 24.3591L32.7017 28.6168C32.5813 28.7982 32.3778 28.9079 32.1594 28.9079H0.649629C0.291213 28.9079 0 28.6177 0 28.2605L1.38513 24.0028C1.45326 23.5954 1.74074 23.308 2.03475 23.3554H33.5109C34.028 23.3554 34.1615 23.7991 34.0532 24.3591Z" fill="#5FE5EE"/>
  </g>
  <g filter="url(#filter4_d_627_47)">
    <path d="M77.9539 37.5592V37.0811C77.9539 36.8448 77.7681 36.6513 77.531 36.6402C76.0283 36.5741 74.2344 36.4374 73.0182 36.229C71.8039 36.0206 70.7267 35.7183 69.7859 35.3202C69.6216 35.2504 69.5143 35.0904 69.5143 34.9127V30.7518C69.5143 30.4448 69.8223 30.229 70.1098 30.3378C71.1169 30.7164 72.1931 31.0309 73.3402 31.2811C74.6049 31.5564 75.8454 31.7304 77.6085 31.8662C77.8652 31.8857 78.0845 31.683 78.0845 31.4262V24.7611C78.0845 24.5527 77.938 24.3723 77.7336 24.3295L76.8805 24.1499C76.8711 24.1481 76.8609 24.1453 76.8515 24.1425C73.9646 23.3434 71.9345 22.3453 70.7622 21.1472C69.5871 19.9481 69 18.2913 69 16.1779C69 13.9788 69.7094 12.2086 71.1281 10.8653C72.4805 9.58531 75.1752 8.84485 77.8082 8.50532C78.0276 8.47741 78.1919 8.2895 78.1919 8.06811V7.49229C78.1919 7.25416 78.3813 7.05881 78.6212 7.05136L80.306 7.0002C80.5552 6.99276 80.7624 7.19183 80.7624 7.44113V7.88113C80.7624 8.11369 80.9425 8.30532 81.1749 8.32113C82.4854 8.40857 84.2859 8.54253 85.293 8.72206C86.259 8.89508 87.0748 9.08857 87.7412 9.30438C87.9223 9.36299 88.0446 9.53322 88.0446 9.72299V13.8821C88.0446 14.1844 87.7468 14.3955 87.4593 14.2988C86.6361 14.0216 85.7858 13.7909 84.9066 13.6058C83.9144 13.3983 82.9222 13.2727 81.3812 13.1825C81.1273 13.1676 80.9117 13.3695 80.9117 13.6225V19.9202C80.9117 20.123 81.0517 20.3006 81.2496 20.3481C83.891 20.9881 85.447 21.6709 86.5614 22.4523C87.7225 23.2662 88.5318 24.1946 88.9901 25.2374C89.4483 26.2802 89.678 27.4439 89.678 28.7295C89.678 30.7574 89.0181 32.4569 87.7001 33.8281C86.4429 35.136 85.0671 36.002 82.5815 36.4253C82.3687 36.4615 82.2119 36.6448 82.2119 36.8597V37.5564C82.2119 37.8001 82.014 37.9974 81.7695 37.9974H78.3991C78.1517 38.0001 77.9539 37.8029 77.9539 37.5592ZM78.0845 18.5583V14.0123C78.0845 13.7453 77.8484 13.5407 77.5833 13.5751C76.4343 13.7239 75.9116 14.0021 75.5327 14.3788C75.1033 14.8076 74.8877 15.4067 74.8877 16.1779C74.8877 16.8923 75.066 17.4634 75.4253 17.8913C75.739 18.2672 76.2794 18.6216 77.5198 18.9816C77.8026 19.0644 78.0845 18.8513 78.0845 18.5583ZM80.6756 31.055C80.6756 31.3323 80.9294 31.5406 81.202 31.4885C82.4704 31.2439 82.9222 30.9536 83.2274 30.5741C83.5709 30.1453 83.7436 29.5323 83.7436 28.7323C83.7436 27.9899 83.5858 27.3899 83.2704 26.9332C82.9903 26.5276 82.5293 26.1555 81.2151 25.8616C80.9388 25.8002 80.6756 26.0095 80.6756 26.2923V31.055Z" fill="#5FE5EE"/>
    <path d="M107.179 37.2113C103.292 37.2113 100.318 36.3909 98.2566 34.7499C96.2778 33.1751 94.9478 31.0495 94.2673 28.3723C94.216 28.1714 94.0331 28.0309 93.8249 28.0309H91.751C91.498 28.0309 91.2927 27.8262 91.2927 27.5741V25.0718C91.2927 24.8197 91.498 24.6151 91.751 24.6151H93.2024C93.4628 24.6151 93.6709 24.3993 93.6588 24.1397C93.6541 24.0318 93.6513 23.9248 93.6513 23.8169C93.6513 23.5509 93.6513 23.27 93.6513 22.9741C93.6513 22.7081 93.6513 22.4346 93.6513 22.1537C93.6513 22.0374 93.6541 21.9221 93.6588 21.8076C93.67 21.549 93.4618 21.3332 93.2014 21.3332H91.75C91.4971 21.3332 91.2917 21.1286 91.2917 20.8765V18.3742C91.2917 18.1221 91.4971 17.9174 91.75 17.9174H93.6784C93.8931 17.9174 94.0797 17.7686 94.1255 17.5602C94.5492 15.6132 95.2362 13.9286 96.1873 12.5072C97.1953 10.9993 98.5973 9.83185 100.392 9.00394C102.187 8.17697 104.434 7.76208 107.134 7.76208C108.291 7.76208 109.284 7.82162 110.115 7.93976C110.945 8.0579 111.724 8.22069 112.451 8.4272C113.088 8.60859 113.765 8.82441 114.482 9.07371C114.665 9.1379 114.788 9.31092 114.788 9.50441V13.6495C114.788 13.9704 114.464 14.1909 114.164 14.0746C113.132 13.6737 112.183 13.3807 111.317 13.1956C110.278 12.9742 109.018 12.8625 107.535 12.8625C105.28 12.8625 103.597 13.2914 102.485 14.1491C101.508 14.9016 100.801 15.9611 100.361 17.3276C100.267 17.6207 100.49 17.9193 100.799 17.9193H108.234C108.487 17.9193 108.693 18.1239 108.693 18.376V20.8783C108.693 21.1304 108.487 21.3351 108.234 21.3351H100.205C99.9525 21.3351 99.7472 21.5397 99.7472 21.7918V22.976C99.7472 23.2718 99.7472 23.5528 99.7472 23.8188C99.7472 23.9388 99.75 24.0597 99.7565 24.1797C99.7686 24.4244 99.9693 24.6169 100.215 24.6169H108.234C108.487 24.6169 108.693 24.8216 108.693 25.0737V27.576C108.693 27.8281 108.487 28.0327 108.234 28.0327H101.039C100.709 28.0327 100.485 28.3713 100.619 28.6718C101.109 29.7686 101.843 30.5983 102.818 31.1593C103.975 31.8244 105.591 32.1574 107.669 32.1574C109.063 32.1574 110.287 32.0467 111.34 31.8244C112.222 31.6383 113.182 31.3648 114.222 31.002C114.521 30.8979 114.833 31.1165 114.833 31.4318V35.5927C114.833 35.7927 114.703 35.9685 114.511 36.0281C113.8 36.2513 113.129 36.4467 112.497 36.6132C111.77 36.8048 110.991 36.9527 110.161 37.0569C109.329 37.1592 108.336 37.2113 107.179 37.2113Z" fill="#5FE5EE"/>
    <path d="M116.799 36.5611V32.8067C116.799 32.5695 116.991 32.3778 117.229 32.3778H117.823C118.594 32.3778 119.18 32.1416 119.581 31.6681C119.981 31.1955 120.182 30.5751 120.182 29.8058L120.241 23.056C120.243 22.8179 120.05 22.6234 119.811 22.6234H117.73C117.495 22.6234 117.304 22.4365 117.299 22.2039L117.254 19.9993C117.249 19.7593 117.443 19.5621 117.684 19.5621H119.751C119.989 19.5621 120.182 19.3704 120.182 19.1332V15.6151C120.182 13.2802 120.923 11.4244 122.407 10.0495C123.89 8.67463 125.818 7.98719 128.192 7.98719C129.319 7.98719 127.904 7.82533 128.824 7.98719C129.629 8.12952 130.343 8.33417 130.967 8.60207C131.124 8.66998 131.226 8.82533 131.226 8.99649V12.2142C131.226 12.5053 130.942 12.709 130.664 12.6216C130.346 12.5221 129.977 12.4402 129.557 12.3779C128.86 12.2746 130.653 12.4663 130.06 12.4663C127.48 12.4663 126.189 13.6346 126.189 15.9695V19.1332C126.189 19.3704 126.381 19.5621 126.619 19.5621H129.206C129.453 19.5621 129.649 19.7676 129.636 20.0132L129.522 22.2179C129.51 22.4458 129.321 22.6244 129.093 22.6244H126.68C126.444 22.6244 126.251 22.8141 126.249 23.0495L126.19 29.4969C126.19 30.1779 126.115 30.7462 125.968 31.2048C125.907 31.3909 125.825 31.5658 125.721 31.7295C125.542 32.0123 125.754 32.3806 126.089 32.3806H135.016C135.254 32.3806 135.446 32.5723 135.446 32.8095V36.5639C135.446 36.8011 135.254 36.9927 135.016 36.9927H117.23C116.991 36.9899 116.799 36.7974 116.799 36.5611Z" fill="#5FE5EE"/>
  </g>
  <g filter="url(#filter5_d_627_47)">
    <path d="M137.005 36.3872V32.6812C137.005 32.431 137.208 32.2282 137.459 32.2282H138.028C138.799 32.2282 139.385 31.9919 139.785 31.5184C140.186 31.0458 140.386 30.4254 140.386 29.6561L140.446 22.9305C140.448 22.6784 140.244 22.4728 139.991 22.4728H137.959C137.711 22.4728 137.509 22.2756 137.504 22.0291L137.459 19.8738C137.454 19.6198 137.659 19.4114 137.914 19.4114H139.932C140.183 19.4114 140.386 19.2087 140.386 18.9584V15.4645C140.386 13.1296 141.127 11.2738 142.611 9.89891C144.095 8.52403 146.023 7.83659 148.396 7.83659C149.524 7.83659 148.109 7.67473 149.028 7.83659C149.827 7.97798 150.537 8.18077 151.156 8.44496C151.324 8.51659 151.431 8.68031 151.431 8.8617V12.0319C151.431 12.3389 151.132 12.5519 150.838 12.4617C150.527 12.3659 150.169 12.2877 149.762 12.2273C149.065 12.124 150.858 12.3156 150.265 12.3156C147.684 12.3156 146.393 13.484 146.393 15.8189V18.9575C146.393 19.2077 146.597 19.4105 146.848 19.4105H149.384C149.644 19.4105 149.852 19.6282 149.839 19.8868L149.727 22.0421C149.714 22.2831 149.515 22.4719 149.272 22.4719H146.907C146.658 22.4719 146.454 22.6719 146.452 22.9212L146.393 29.3445C146.393 30.0254 146.318 30.5938 146.17 31.0524C146.114 31.2245 146.041 31.3863 145.947 31.5398C145.763 31.8421 145.981 32.2282 146.336 32.2282H155.194C155.445 32.2282 155.649 32.431 155.649 32.6812V36.3872C155.649 36.6375 155.445 36.8403 155.194 36.8403H137.458C137.208 36.8403 137.005 36.6375 137.005 36.3872Z" fill="#5FE5EE"/>
  </g>
  <defs>
    <filter id="filter0_d_627_47" x="0.346252" y="0" width="52.7137" height="28.9881" filterUnits="userSpaceOnUse" color-interpolation-filters="sRGB">
      <feFlood flood-opacity="0" result="BackgroundImageFix"/>
      <feColorMatrix in="SourceAlpha" type="matrix" values="0 0 0 0 0 0 0 0 0 0 0 0 0 0 0 0 0 0 127 0" result="hardAlpha"/>
      <feOffset dy="4"/>
      <feGaussianBlur stdDeviation="2"/>
      <feComposite in2="hardAlpha" operator="out"/>
      <feColorMatrix type="matrix" values="0 0 0 0 0 0 0 0 0 0 0 0 0 0 0 0 0 0 0.25 0"/>
      <feBlend mode="normal" in2="BackgroundImageFix" result="effect1_dropShadow_627_47"/>
      <feBlend mode="normal" in="SourceGraphic" in2="effect1_dropShadow_627_47" result="shape"/>
    </filter>
    <filter id="filter1_d_627_47" x="0.406799" y="23.3554" width="52.5374" height="29.6446" filterUnits="userSpaceOnUse" color-interpolation-filters="sRGB">
      <feFlood flood-opacity="0" result="BackgroundImageFix"/>
      <feColorMatrix in="SourceAlpha" type="matrix" values="0 0 0 0 0 0 0 0 0 0 0 0 0 0 0 0 0 0 127 0" result="hardAlpha"/>
      <feOffset dy="4"/>
      <feGaussianBlur stdDeviation="2"/>
      <feComposite in2="hardAlpha" operator="out"/>
      <feColorMatrix type="matrix" values="0 0 0 0 0 0 0 0 0 0 0 0 0 0 0 0 0 0 0.25 0"/>
      <feBlend mode="normal" in2="BackgroundImageFix" result="effect1_dropShadow_627_47"/>
      <feBlend mode="normal" in="SourceGraphic" in2="effect1_dropShadow_627_47" result="shape"/>
    </filter>
    <filter id="filter2_d_627_47" x="-3.99902" y="16.1357" width="37.1246" height="12.8847" filterUnits="userSpaceOnUse" color-interpolation-filters="sRGB">
      <feFlood flood-opacity="0" result="BackgroundImageFix"/>
      <feColorMatrix in="SourceAlpha" type="matrix" values="0 0 0 0 0 0 0 0 0 0 0 0 0 0 0 0 0 0 127 0" result="hardAlpha"/>
      <feOffset dy="4"/>
      <feGaussianBlur stdDeviation="2"/>
      <feComposite in2="hardAlpha" operator="out"/>
      <feColorMatrix type="matrix" values="0 0 0 0 0 0 0 0 0 0 0 0 0 0 0 0 0 0 0.25 0"/>
      <feBlend mode="normal" in2="BackgroundImageFix" result="effect1_dropShadow_627_47"/>
      <feBlend mode="normal" in="SourceGraphic" in2="effect1_dropShadow_627_47" result="shape"/>
    </filter>
    <filter id="filter3_d_627_47" x="-4" y="23.3503" width="42.0881" height="13.5577" filterUnits="userSpaceOnUse" color-interpolation-filters="sRGB">
      <feFlood flood-opacity="0" result="BackgroundImageFix"/>
      <feColorMatrix in="SourceAlpha" type="matrix" values="0 0 0 0 0 0 0 0 0 0 0 0 0 0 0 0 0 0 127 0" result="hardAlpha"/>
      <feOffset dy="4"/>
      <feGaussianBlur stdDeviation="2"/>
      <feComposite in2="hardAlpha" operator="out"/>
      <feColorMatrix type="matrix" values="0 0 0 0 0 0 0 0 0 0 0 0 0 0 0 0 0 0 0.25 0"/>
      <feBlend mode="normal" in2="BackgroundImageFix" result="effect1_dropShadow_627_47"/>
      <feBlend mode="normal" in="SourceGraphic" in2="effect1_dropShadow_627_47" result="shape"/>
    </filter>
    <filter id="filter4_d_627_47" x="65" y="7" width="74.446" height="38.9974" filterUnits="userSpaceOnUse" color-interpolation-filters="sRGB">
      <feFlood flood-opacity="0" result="BackgroundImageFix"/>
      <feColorMatrix in="SourceAlpha" type="matrix" values="0 0 0 0 0 0 0 0 0 0 0 0 0 0 0 0 0 0 127 0" result="hardAlpha"/>
      <feOffset dy="4"/>
      <feGaussianBlur stdDeviation="2"/>
      <feComposite in2="hardAlpha" operator="out"/>
      <feColorMatrix type="matrix" values="0 0 0 0 0 0 0 0 0 0 0 0 0 0 0 0 0 0 0.25 0"/>
      <feBlend mode="normal" in2="BackgroundImageFix" result="effect1_dropShadow_627_47"/>
      <feBlend mode="normal" in="SourceGraphic" in2="effect1_dropShadow_627_47" result="shape"/>
    </filter>
    <filter id="filter5_d_627_47" x="133.005" y="7.76465" width="26.6442" height="37.0756" filterUnits="userSpaceOnUse" color-interpolation-filters="sRGB">
      <feFlood flood-opacity="0" result="BackgroundImageFix"/>
      <feColorMatrix in="SourceAlpha" type="matrix" values="0 0 0 0 0 0 0 0 0 0 0 0 0 0 0 0 0 0 127 0" result="hardAlpha"/>
      <feOffset dy="4"/>
      <feGaussianBlur stdDeviation="2"/>
      <feComposite in2="hardAlpha" operator="out"/>
      <feColorMatrix type="matrix" values="0 0 0 0 0 0 0 0 0 0 0 0 0 0 0 0 0 0 0.25 0"/>
      <feBlend mode="normal" in2="BackgroundImageFix" result="effect1_dropShadow_627_47"/>
      <feBlend mode="normal" in="SourceGraphic" in2="effect1_dropShadow_627_47" result="shape"/>
    </filter>
  </defs>
</svg>
