<svg xmlns="http://www.w3.org/2000/svg" width="45" height="45" viewBox="0 0 45 45" fill="none">
  <g clip-path="url(#clip0_627_9)">
    <g filter="url(#filter0_d_627_9)">
      <path d="M22.5 15C21.0166 15 19.5666 15.4399 18.3332 16.264C17.0999 17.0881 16.1386 18.2594 15.5709 19.6299C15.0032 21.0003 14.8547 22.5083 15.1441 23.9632C15.4335 25.418 16.1478 26.7544 17.1967 27.8033C18.2456 28.8522 19.582 29.5665 21.0368 29.8559C22.4917 30.1453 23.9997 29.9968 25.3701 29.4291C26.7406 28.8614 27.9119 27.9001 28.736 26.6668C29.5601 25.4334 30 23.9834 30 22.5C30 20.5109 29.2098 18.6032 27.8033 17.1967C26.3968 15.7902 24.4891 15 22.5 15ZM22.5 26.25C21.7583 26.25 21.0333 26.0301 20.4166 25.618C19.7999 25.206 19.3193 24.6203 19.0355 23.9351C18.7516 23.2498 18.6774 22.4958 18.8221 21.7684C18.9668 21.041 19.3239 20.3728 19.8484 19.8484C20.3728 19.3239 21.041 18.9667 21.7684 18.8221C22.4958 18.6774 23.2498 18.7516 23.9351 19.0355C24.6203 19.3193 25.206 19.7999 25.618 20.4166C26.0301 21.0333 26.25 21.7583 26.25 22.5C26.25 23.4946 25.8549 24.4484 25.1517 25.1517C24.4484 25.8549 23.4946 26.25 22.5 26.25Z" fill="#E4E4E4"/>
    </g>
    <g filter="url(#filter1_d_627_9)">
      <path d="M39.9262 26.0625L39.0937 25.5825C39.4685 23.5433 39.4685 21.4529 39.0937 19.4137L39.9262 18.9338C40.5664 18.5644 41.1276 18.0726 41.5777 17.4864C42.0279 16.9001 42.3581 16.231 42.5496 15.5172C42.7411 14.8033 42.7902 14.0587 42.694 13.3259C42.5977 12.5931 42.3581 11.8864 41.9887 11.2463C41.6194 10.6061 41.1276 10.0449 40.5414 9.59476C39.9551 9.14464 39.286 8.81439 38.5721 8.62287C37.8583 8.43135 37.1137 8.3823 36.3809 8.47854C35.6481 8.57478 34.9414 8.81441 34.3012 9.18375L33.4669 9.66563C31.891 8.31922 30.08 7.27547 28.125 6.58687V5.625C28.125 4.13316 27.5324 2.70242 26.4775 1.64752C25.4226 0.592632 23.9918 0 22.5 0C21.0081 0 19.5774 0.592632 18.5225 1.64752C17.4676 2.70242 16.875 4.13316 16.875 5.625V6.58687C14.9201 7.27794 13.1097 8.32425 11.535 9.67313L10.6969 9.1875C9.40393 8.44158 7.86764 8.23982 6.42596 8.62662C4.98427 9.01341 3.75529 9.95707 3.00936 11.25C2.26344 12.5429 2.06169 14.0792 2.44848 15.5209C2.83527 16.9626 3.77893 18.1916 5.07186 18.9375L5.90436 19.4175C5.52957 21.4567 5.52957 23.5471 5.90436 25.5863L5.07186 26.0662C3.77893 26.8122 2.83527 28.0412 2.44848 29.4828C2.06169 30.9245 2.26344 32.4608 3.00936 33.7537C3.75529 35.0467 4.98427 35.9903 6.42596 36.3771C7.86764 36.7639 9.40393 36.5622 10.6969 35.8162L11.5312 35.3344C13.1077 36.681 14.9193 37.7247 16.875 38.4131V39.375C16.875 40.8668 17.4676 42.2976 18.5225 43.3525C19.5774 44.4074 21.0081 45 22.5 45C23.9918 45 25.4226 44.4074 26.4775 43.3525C27.5324 42.2976 28.125 40.8668 28.125 39.375V38.4131C30.0799 37.7221 31.8903 36.6758 33.465 35.3269L34.3031 35.8106C35.596 36.5565 37.1323 36.7583 38.574 36.3715C40.0157 35.9847 41.2447 35.0411 41.9906 33.7481C42.7365 32.4552 42.9383 30.9189 42.5515 29.4772C42.1647 28.0355 41.221 26.8065 39.9281 26.0606L39.9262 26.0625ZM35.1487 18.9825C35.7837 21.2832 35.7837 23.713 35.1487 26.0138C35.0379 26.4142 35.0632 26.8401 35.2206 27.2246C35.3781 27.6092 35.6588 27.9305 36.0187 28.1381L38.0512 29.3119C38.4821 29.5605 38.7966 29.9701 38.9255 30.4506C39.0544 30.9312 38.9871 31.4432 38.7384 31.8741C38.4898 32.305 38.0802 32.6194 37.5997 32.7483C37.1192 32.8772 36.6071 32.8099 36.1762 32.5612L34.14 31.3838C33.7798 31.1751 33.3604 31.0923 32.9479 31.1483C32.5355 31.2043 32.1534 31.396 31.8619 31.6931C30.193 33.3969 28.0904 34.6125 25.7812 35.2087C25.3782 35.3124 25.021 35.5472 24.7661 35.8761C24.5112 36.205 24.3729 36.6095 24.3731 37.0256V39.375C24.3731 39.8723 24.1756 40.3492 23.8239 40.7008C23.4723 41.0525 22.9954 41.25 22.4981 41.25C22.0008 41.25 21.5239 41.0525 21.1723 40.7008C20.8207 40.3492 20.6231 39.8723 20.6231 39.375V37.0275C20.6233 36.6113 20.4851 36.2069 20.2301 35.878C19.9752 35.549 19.6181 35.3143 19.215 35.2106C16.9056 34.6119 14.8037 33.3937 13.1362 31.6875C12.8447 31.3904 12.4626 31.1987 12.0502 31.1427C11.6377 31.0867 11.2183 31.1695 10.8581 31.3781L8.82561 32.5537C8.61229 32.6788 8.37634 32.7604 8.13135 32.7939C7.88635 32.8274 7.63715 32.8121 7.39809 32.7489C7.15903 32.6857 6.93483 32.5759 6.7384 32.4257C6.54197 32.2755 6.3772 32.0879 6.25356 31.8737C6.12992 31.6596 6.04986 31.4231 6.01798 31.1779C5.98611 30.9327 6.00306 30.6836 6.06785 30.445C6.13263 30.2063 6.24398 29.9829 6.39549 29.7874C6.54699 29.592 6.73565 29.4285 6.95061 29.3062L8.98311 28.1325C9.34302 27.9249 9.62375 27.6035 9.78123 27.219C9.9387 26.8345 9.96398 26.4086 9.85311 26.0081C9.21816 23.7074 9.21816 21.2776 9.85311 18.9769C9.96199 18.5773 9.93549 18.1529 9.77777 17.7699C9.62004 17.387 9.33996 17.067 8.98124 16.86L6.94874 15.6863C6.51785 15.4376 6.20337 15.028 6.0745 14.5475C5.94563 14.067 6.01291 13.555 6.26155 13.1241C6.51019 12.6932 6.91982 12.3787 7.40032 12.2498C7.88083 12.1209 8.39284 12.1882 8.82374 12.4369L10.86 13.6144C11.2192 13.8235 11.6377 13.9073 12.0497 13.8526C12.4618 13.798 12.8439 13.608 13.1362 13.3125C14.8052 11.6088 16.9077 10.3932 19.2169 9.79688C19.6212 9.69293 19.9792 9.45704 20.2343 9.12656C20.4894 8.79609 20.6269 8.38995 20.625 7.9725V5.625C20.625 5.12772 20.8225 4.65081 21.1742 4.29917C21.5258 3.94754 22.0027 3.75 22.5 3.75C22.9973 3.75 23.4742 3.94754 23.8258 4.29917C24.1774 4.65081 24.375 5.12772 24.375 5.625V7.9725C24.3748 8.38867 24.513 8.79308 24.768 9.12203C25.0229 9.45097 25.3801 9.68575 25.7831 9.78938C28.0931 10.3878 30.1957 11.606 31.8637 13.3125C32.1553 13.6096 32.5374 13.8013 32.9498 13.8573C33.3623 13.9133 33.7817 13.8305 34.1419 13.6219L36.1744 12.4462C36.3877 12.3212 36.6236 12.2396 36.8686 12.2061C37.1136 12.1726 37.3628 12.1879 37.6019 12.2511C37.841 12.3143 38.0652 12.4241 38.2616 12.5743C38.458 12.7245 38.6228 12.9121 38.7464 13.1263C38.8701 13.3404 38.9501 13.5769 38.982 13.8221C39.0139 14.0673 38.9969 14.3164 38.9321 14.555C38.8673 14.7937 38.756 15.0171 38.6045 15.2126C38.453 15.408 38.2643 15.5715 38.0494 15.6937L36.0169 16.8675C35.6588 17.0751 35.3795 17.3953 35.2225 17.7782C35.0655 18.1611 35.0395 18.5852 35.1487 18.9844V18.9825Z" fill="#E4E4E4"/>
    </g>
  </g>
  <defs>
    <filter id="filter0_d_627_9" x="11" y="15" width="23" height="23" filterUnits="userSpaceOnUse" color-interpolation-filters="sRGB">
      <feFlood flood-opacity="0" result="BackgroundImageFix"/>
      <feColorMatrix in="SourceAlpha" type="matrix" values="0 0 0 0 0 0 0 0 0 0 0 0 0 0 0 0 0 0 127 0" result="hardAlpha"/>
      <feOffset dy="4"/>
      <feGaussianBlur stdDeviation="2"/>
      <feComposite in2="hardAlpha" operator="out"/>
      <feColorMatrix type="matrix" values="0 0 0 0 0 0 0 0 0 0 0 0 0 0 0 0 0 0 0.25 0"/>
      <feBlend mode="normal" in2="BackgroundImageFix" result="effect1_dropShadow_627_9"/>
      <feBlend mode="normal" in="SourceGraphic" in2="effect1_dropShadow_627_9" result="shape"/>
    </filter>
    <filter id="filter1_d_627_9" x="-1.74377" y="0" width="48.4875" height="53" filterUnits="userSpaceOnUse" color-interpolation-filters="sRGB">
      <feFlood flood-opacity="0" result="BackgroundImageFix"/>
      <feColorMatrix in="SourceAlpha" type="matrix" values="0 0 0 0 0 0 0 0 0 0 0 0 0 0 0 0 0 0 127 0" result="hardAlpha"/>
      <feOffset dy="4"/>
      <feGaussianBlur stdDeviation="2"/>
      <feComposite in2="hardAlpha" operator="out"/>
      <feColorMatrix type="matrix" values="0 0 0 0 0 0 0 0 0 0 0 0 0 0 0 0 0 0 0.25 0"/>
      <feBlend mode="normal" in2="BackgroundImageFix" result="effect1_dropShadow_627_9"/>
      <feBlend mode="normal" in="SourceGraphic" in2="effect1_dropShadow_627_9" result="shape"/>
    </filter>
    <clipPath id="clip0_627_9">
      <rect width="45" height="45" fill="white"/>
    </clipPath>
  </defs>
</svg>
