<svg width="45" height="45" viewBox="0 0 45 45" fill="none" xmlns="http://www.w3.org/2000/svg">
  <g clip-path="url(#clip0_627_9)">
    <g filter="url(#filter0_d_627_9)">
      <path d="M39.67 26.0625L38.8375 25.5825C39.2123 23.5433 39.2123 21.4529 38.8375 19.4138L39.67 18.9337C40.3102 18.5644 40.8714 18.0726 41.3215 17.4864C41.7716 16.9001 42.1019 16.231 42.2934 15.5172C42.4849 14.8033 42.534 14.0587 42.4377 13.3259C42.3415 12.5931 42.1019 11.8864 41.7325 11.2463C41.3632 10.6061 40.8713 10.0449 40.2851 9.59476C39.6989 9.14464 39.0298 8.81439 38.3159 8.62287C37.6021 8.43135 36.8575 8.3823 36.1247 8.47854C35.3919 8.57478 34.6852 8.81441 34.045 9.18375L33.2106 9.66563C31.6348 8.31922 29.8238 7.27546 27.8688 6.58688V5.625C27.8688 4.13316 27.2761 2.70242 26.2212 1.64752C25.1663 0.592632 23.7356 0 22.2438 0C20.7519 0 19.3212 0.592632 18.2663 1.64752C17.2114 2.70242 16.6188 4.13316 16.6188 5.625V6.58688C14.6639 7.27794 12.8535 8.32425 11.2788 9.67312L10.4406 9.1875C9.14771 8.44158 7.61142 8.23982 6.16973 8.62662C4.72804 9.01341 3.49906 9.95707 2.75314 11.25C2.00722 12.5429 1.80546 14.0792 2.19225 15.5209C2.57905 16.9626 3.52271 18.1916 4.81564 18.9375L5.64814 19.4175C5.27334 21.4567 5.27334 23.5471 5.64814 25.5862L4.81564 26.0663C3.52271 26.8122 2.57905 28.0412 2.19225 29.4828C1.80546 30.9245 2.00722 32.4608 2.75314 33.7538C3.49906 35.0467 4.72804 35.9903 6.16973 36.3771C7.61142 36.7639 9.14771 36.5622 10.4406 35.8162L11.275 35.3344C12.8514 36.681 14.6631 37.7247 16.6188 38.4131V39.375C16.6188 40.8668 17.2114 42.2976 18.2663 43.3525C19.3212 44.4074 20.7519 45 22.2438 45C23.7356 45 25.1663 44.4074 26.2212 43.3525C27.2761 42.2976 27.8688 40.8668 27.8688 39.375V38.4131C29.8237 37.7221 31.634 36.6757 33.2088 35.3269L34.0469 35.8106C35.3398 36.5565 36.8761 36.7583 38.3178 36.3715C39.7595 35.9847 40.9885 35.0411 41.7344 33.7481C42.4803 32.4552 42.6821 30.9189 42.2953 29.4772C41.9085 28.0355 40.9648 26.8065 39.6719 26.0606L39.67 26.0625ZM34.8925 18.9825C35.5275 21.2832 35.5275 23.713 34.8925 26.0137C34.7816 26.4142 34.8069 26.8401 34.9644 27.2246C35.1219 27.6092 35.4026 27.9305 35.7625 28.1381L37.795 29.3119C38.2259 29.5605 38.5404 29.9701 38.6693 30.4506C38.7981 30.9312 38.7308 31.4432 38.4822 31.8741C38.2336 32.305 37.8239 32.6194 37.3434 32.7483C36.8629 32.8772 36.3509 32.8099 35.92 32.5612L33.8838 31.3838C33.5236 31.1751 33.1042 31.0923 32.6917 31.1483C32.2793 31.2043 31.8972 31.396 31.6056 31.6931C29.9367 33.3969 27.8342 34.6125 25.525 35.2087C25.122 35.3124 24.7648 35.5472 24.5099 35.8761C24.2549 36.205 24.1167 36.6095 24.1169 37.0256V39.375C24.1169 39.8723 23.9193 40.3492 23.5677 40.7008C23.2161 41.0525 22.7392 41.25 22.2419 41.25C21.7446 41.25 21.2677 41.0525 20.9161 40.7008C20.5644 40.3492 20.3669 39.8723 20.3669 39.375V37.0275C20.3671 36.6113 20.2288 36.2069 19.9739 35.878C19.719 35.549 19.3618 35.3143 18.9588 35.2106C16.6494 34.6119 14.5475 33.3937 12.88 31.6875C12.5885 31.3904 12.2064 31.1987 11.7939 31.1427C11.3815 31.0867 10.9621 31.1695 10.6019 31.3781L8.56939 32.5537C8.35607 32.6788 8.12012 32.7604 7.87512 32.7939C7.63013 32.8274 7.38093 32.8121 7.14186 32.7489C6.9028 32.6857 6.6786 32.5759 6.48218 32.4257C6.28575 32.2755 6.12097 32.0879 5.99733 31.8737C5.87369 31.6596 5.79363 31.4231 5.76176 31.1779C5.72989 30.9327 5.74683 30.6836 5.81162 30.445C5.87641 30.2063 5.98776 29.9829 6.13926 29.7874C6.29077 29.592 6.47943 29.4285 6.69439 29.3063L8.72689 28.1325C9.08679 27.9249 9.36753 27.6035 9.525 27.219C9.68247 26.8345 9.70776 26.4086 9.59689 26.0081C8.96193 23.7074 8.96193 21.2776 9.59689 18.9769C9.70576 18.5773 9.67927 18.1529 9.52154 17.7699C9.36381 17.387 9.08373 17.067 8.72501 16.86L6.69251 15.6863C6.26162 15.4376 5.94715 15.028 5.81827 14.5475C5.6894 14.067 5.75669 13.555 6.00533 13.1241C6.25397 12.6932 6.66359 12.3787 7.1441 12.2498C7.6246 12.1209 8.13662 12.1882 8.56751 12.4369L10.6038 13.6144C10.963 13.8235 11.3815 13.9073 11.7935 13.8526C12.2055 13.798 12.5877 13.608 12.88 13.3125C14.5489 11.6088 16.6514 10.3932 18.9606 9.79687C19.3649 9.69293 19.723 9.45703 19.9781 9.12656C20.2331 8.79609 20.3706 8.38995 20.3688 7.9725V5.625C20.3688 5.12772 20.5663 4.65081 20.9179 4.29917C21.2696 3.94754 21.7465 3.75 22.2438 3.75C22.741 3.75 23.218 3.94754 23.5696 4.29917C23.9212 4.65081 24.1188 5.12772 24.1188 5.625V7.9725C24.1186 8.38867 24.2568 8.79308 24.5118 9.12203C24.7667 9.45097 25.1238 9.68575 25.5269 9.78938C27.8369 10.3878 29.9395 11.606 31.6075 13.3125C31.899 13.6096 32.2811 13.8013 32.6936 13.8573C33.1061 13.9133 33.5254 13.8305 33.8856 13.6219L35.9181 12.4463C36.1315 12.3212 36.3674 12.2396 36.6124 12.2061C36.8574 12.1726 37.1066 12.1879 37.3457 12.2511C37.5847 12.3143 37.8089 12.4241 38.0054 12.5743C38.2018 12.7245 38.3666 12.9121 38.4902 13.1263C38.6138 13.3404 38.6939 13.5769 38.7258 13.8221C38.7576 14.0673 38.7407 14.3164 38.6759 14.555C38.6111 14.7937 38.4998 15.0171 38.3483 15.2126C38.1968 15.408 38.0081 15.5715 37.7931 15.6937L35.7606 16.8675C35.4026 17.0751 35.1233 17.3953 34.9663 17.7782C34.8092 18.1611 34.7833 18.5852 34.8925 18.9844V18.9825Z" fill="#5FE5EE"/>
    </g>
    <g filter="url(#filter1_d_627_9)">
      <path d="M22.2438 15C20.7773 15 19.3438 15.4399 18.1244 16.264C16.9051 17.0881 15.9548 18.2594 15.3936 19.6299C14.8324 21.0003 14.6855 22.5083 14.9716 23.9632C15.2577 25.418 15.9639 26.7544 17.0008 27.8033C18.0378 28.8522 19.359 29.5665 20.7972 29.8559C22.2355 30.1453 23.7264 29.9968 25.0812 29.4291C26.436 28.8614 27.594 27.9001 28.4088 26.6668C29.2235 25.4334 29.6583 23.9834 29.6583 22.5C29.6583 20.5109 28.8772 18.6032 27.4867 17.1967C26.0962 15.7902 24.2102 15 22.2438 15ZM22.2438 26.25C21.5105 26.25 20.7938 26.0301 20.1841 25.618C19.5744 25.206 19.0993 24.6203 18.8187 23.9351C18.5381 23.2498 18.4646 22.4958 18.6077 21.7684C18.7507 21.041 19.1038 20.3728 19.6223 19.8484C20.1408 19.3239 20.8014 18.9667 21.5205 18.8221C22.2396 18.6774 22.9851 18.7516 23.6625 19.0355C24.3399 19.3193 24.9189 19.7999 25.3263 20.4166C25.7336 21.0333 25.951 21.7583 25.951 22.5C25.951 23.4946 25.5605 24.4484 24.8652 25.1517C24.17 25.8549 23.227 26.25 22.2438 26.25Z" fill="#5FE5EE"/>
    </g>
  </g>
  <defs>
    <filter id="filter0_d_627_9" x="-2" y="0" width="48.4875" height="53" filterUnits="userSpaceOnUse" color-interpolation-filters="sRGB">
      <feFlood flood-opacity="0" result="BackgroundImageFix"/>
      <feColorMatrix in="SourceAlpha" type="matrix" values="0 0 0 0 0 0 0 0 0 0 0 0 0 0 0 0 0 0 127 0" result="hardAlpha"/>
      <feOffset dy="4"/>
      <feGaussianBlur stdDeviation="2"/>
      <feComposite in2="hardAlpha" operator="out"/>
      <feColorMatrix type="matrix" values="0 0 0 0 0 0 0 0 0 0 0 0 0 0 0 0 0 0 0.25 0"/>
      <feBlend mode="normal" in2="BackgroundImageFix" result="effect1_dropShadow_627_9"/>
      <feBlend mode="normal" in="SourceGraphic" in2="effect1_dropShadow_627_9" result="shape"/>
    </filter>
    <filter id="filter1_d_627_9" x="10.8292" y="15" width="22.8292" height="23" filterUnits="userSpaceOnUse" color-interpolation-filters="sRGB">
      <feFlood flood-opacity="0" result="BackgroundImageFix"/>
      <feColorMatrix in="SourceAlpha" type="matrix" values="0 0 0 0 0 0 0 0 0 0 0 0 0 0 0 0 0 0 127 0" result="hardAlpha"/>
      <feOffset dy="4"/>
      <feGaussianBlur stdDeviation="2"/>
      <feComposite in2="hardAlpha" operator="out"/>
      <feColorMatrix type="matrix" values="0 0 0 0 0 0 0 0 0 0 0 0 0 0 0 0 0 0 0.25 0"/>
      <feBlend mode="normal" in2="BackgroundImageFix" result="effect1_dropShadow_627_9"/>
      <feBlend mode="normal" in="SourceGraphic" in2="effect1_dropShadow_627_9" result="shape"/>
    </filter>
    <clipPath id="clip0_627_9">
      <rect width="44.4875" height="45" fill="white"/>
    </clipPath>
  </defs>
</svg>
