<svg width="46" height="45" viewBox="0 0 46 45" fill="none" xmlns="http://www.w3.org/2000/svg">
    <path d="M45.0989 23.1862L38.299 16.6056C37.4204 15.7552 35.9957 15.7552 35.117 16.6056L33.758 17.9207V2.17742C33.758 0.974903 32.7506 0 31.508 0H3.00805C1.76546 0 0.758057 0.974903 0.758057 2.17742V37.0164C0.758057 38.2189 1.76546 39.1938 3.00805 39.1938H15.758V42.8226C15.758 44.0251 16.7654 45 18.008 45H24.808C25.4048 45 25.9771 44.7705 26.399 44.3622L45.0991 26.2653C45.9777 25.415 45.9777 24.0365 45.0989 23.1862ZM5.25805 4.35484H29.258V22.2756L16.4171 34.7021C16.3718 34.7458 16.33 34.792 16.289 34.8389H5.25805V4.35484ZM23.876 40.6452H20.258V37.1437L36.7081 21.2245L40.3261 24.7258L23.876 40.6452Z" fill="#E4E4E4"/>
</svg>
